<svg xmlns="http://www.w3.org/2000/svg" viewBox="0 0 512 512"><defs><style>.cls-6{fill:#efc788}.cls-7{fill:#c2a077}.cls-9{fill:#2b3060}.cls-20{fill:none;stroke-linecap:round;stroke-width:10px}.cls-11{fill:#4e5e9c}.cls-12{fill:#4c856f}.cls-16{fill:#91c7ee}.cls-19{fill:#75baa1}.cls-20{stroke:#c9dcf1;stroke-linejoin:round}</style></defs><circle cx="256" cy="256" r="256" style="fill:#cf4b74" id="BULINE"/><g id="Icons"><circle cx="255.71" cy="256.48" r="233.82" style="fill:#a2436c"/><path d="M143.91 403.17c-12.47-12.47-33.29-12.34-47.47-2.13a7.79 7.79 0 0 1-9.11 0c-14.17-10.21-35-10.34-47.47 2.13a35.56 35.56 0 0 0 0 50.29l1.73 1.74 33 32.95a24.5 24.5 0 0 0 34.67 0l33-32.95 1.73-1.74a35.56 35.56 0 0 0-.08-50.29z" style="fill:#da8ab3"/><path d="M248.76 162.25V57.8h-31.29A134.4 134.4 0 0 0 83.06 192.21v93.58h24.43V201.9c0-1.21 0-2.4.1-3.6a314.65 314.65 0 0 0 54.75-4.68q6.14-1.1 11.94-2.39c2.59-.57 5.12-1.17 7.63-1.8s4.94-1.28 7.35-2c3.6-1 7.12-2.08 10.52-3.19q3.41-1.11 6.68-2.28c2.19-.79 4.33-1.57 6.41-2.38l2.33-.92c1.54-.62 3.07-1.24 4.56-1.87l2.22-1c2-.84 3.88-1.71 5.75-2.58l2.78-1.31c1.82-.87 3.6-1.76 5.34-2.65 1.74-.88 3.45-1.77 5.09-2.68s3.27-1.78 4.84-2.69l2.95-1.71" style="fill:#683027"/><path d="m248.76 162.26-2.95 1.74c-1.57.91-3.18 1.8-4.84 2.69s-3.35 1.8-5.09 2.68c-1.74.89-3.52 1.78-5.34 2.65l-2.78 1.31c-1.87.87-3.79 1.74-5.75 2.58q-4.41 1.92-9.11 3.74c-2.1.81-4.22 1.61-6.41 2.38s-4.41 1.54-6.68 2.28q-5.1 1.66-10.52 3.19-3.62 1-7.35 2c-2.49.63-5 1.24-7.63 1.8q-5.81 1.29-11.94 2.39a314.65 314.65 0 0 1-54.75 4.68c-.06 1.2-.1 2.39-.1 3.6v83.89H83.06v-93.65A134.32 134.32 0 0 1 149.75 76.1c17 21.08 47.22 45.26 99 52.12v34" style="fill:#552723"/><circle class="cls-6" cx="107.49" cy="276.24" r="35.3"/><circle class="cls-7" cx="107.49" cy="276.24" r="15.6"/><path d="M248.76 434.82v11.49c-74.7-.7-136.1-61-140.94-134.79q-.33-4.68-.33-9.43V201.9c0-1.21 0-2.4.1-3.6a314.65 314.65 0 0 0 54.75-4.68v110.1a142.61 142.61 0 0 0 86.42 131.1z" style="fill:#d9b37f"/><path class="cls-6" d="M248.76 162.26v272.56a142.61 142.61 0 0 1-86.42-131.1v-110.1q6.14-1.1 11.94-2.39c2.59-.57 5.12-1.17 7.63-1.8s4.94-1.28 7.35-2c3.6-1 7.12-2.08 10.52-3.19q3.41-1.11 6.68-2.28c2.19-.79 4.33-1.57 6.41-2.38q4.69-1.85 9.11-3.74c2-.86 3.87-1.71 5.75-2.58l2.78-1.31q2.73-1.32 5.34-2.65c1.74-.89 3.43-1.79 5.09-2.68s3.27-1.78 4.84-2.69c1-.57 2-1.15 2.95-1.72"/><rect class="cls-9" x="169.25" y="248.76" width="28.36" height="48.51" rx="14.18"/><path class="cls-7" d="M248.76 304.44v24.29h-14.1a9 9 0 0 1-9-9v-6.33a9 9 0 0 1 9-9z"/><path d="M220.12 360.54a28.64 28.64 0 0 0 28.64 28.64" style="stroke:#c2a077;stroke-miterlimit:10;fill:none;stroke-linecap:round;stroke-width:10px"/><path class="cls-11" d="m462.51 286.38-50.5-4.7v24.55l50.5-4.7v-15.15z"/><path class="cls-12" d="M445.48 294a22.29 22.29 0 1 1 14.68 21 22.35 22.35 0 0 1-14.68-21z"/><ellipse cx="460.16" cy="293.95" rx="14.68" ry="20.98" style="fill:#40705e"/><path class="cls-9" d="M398.56 258.28h23.63v71.61h-23.63a28.83 28.83 0 0 1-28.83-28.83v-13.94a28.83 28.83 0 0 1 28.83-28.83z" transform="rotate(180 395.955 294.09)"/><path d="M401.14 209.57a150.68 150.68 0 0 1-8.15 49q-1.65 4.84-3.64 9.54a125.18 125.18 0 0 0-9.84 48.6v.29q0 6.51-.63 12.87a129.19 129.19 0 0 1-128.66 116.44h-1.46V58.66h.41a150.78 150.78 0 0 1 152 150.91z" style="fill:#495a89"/><path class="cls-11" d="M401.14 209.57a150.68 150.68 0 0 1-8.15 49q-1.65 4.84-3.64 9.54a125.18 125.18 0 0 0-9.84 48.6v.29q0 6.51-.63 12.87a129.32 129.32 0 0 1-106.77 114.59 126.78 126.78 0 0 1-23.35-6.3V65.47A149.63 149.63 0 0 1 272 60.22a150.76 150.76 0 0 1 129.14 149.35z"/><path d="M302 67.23v.53l-7.23 104.73a43.52 43.52 0 0 1-43.47 40.56h-2.5V51.58a8.43 8.43 0 0 1 8.43-8.44h22.33A22.54 22.54 0 0 1 302 67.23z" style="fill:#83b3d0"/><path class="cls-16" d="M302 67.23v.53l-7.23 104.73a43.6 43.6 0 0 1-26.44 37.11 43.68 43.68 0 0 1-19.53-16.41V51.58a8.37 8.37 0 0 1 8.2-8.44h22.56A22.54 22.54 0 0 1 302 67.23z"/><path d="M360.33 240.45v53.24A21.35 21.35 0 0 1 339 315h-90.24v-95.9H339a21.35 21.35 0 0 1 21.33 21.35z" style="fill:#334079"/><circle class="cls-16" cx="313.35" cy="267.08" r="27.01"/><circle cx="313.35" cy="267.08" r="14.6" style="fill:#bdddef"/><path class="cls-12" d="M328 367.48v24.21a6.53 6.53 0 0 1-6.54 6.53h-72.7V361h72.65a6.53 6.53 0 0 1 6.59 6.48z"/><path class="cls-19" d="M269.02 360.95h14.6v37.27h-14.6zM296.03 360.95h14.6v37.27h-14.6zM248.76 360.95h8.69v37.27h-8.69z"/><path class="cls-9" d="M290.45 219.1a21 21 0 0 1-20.95 21h-20.74v-21z"/><path class="cls-20" d="m380.63 145.61 34.48-34.48 30.93 30.93 19.74-19.38M380.63 167.95h18.72M412.02 167.95h15.33M442.24 167.95h28.45"/></g></svg>